<?xml version="1.0" encoding="utf-8" standalone="no"?>
<!DOCTYPE svg PUBLIC "-//W3C//DTD SVG 1.1//EN"
  "http://www.w3.org/Graphics/SVG/1.1/DTD/svg11.dtd">
<!-- Created with matplotlib (https://matplotlib.org/) -->
<svg height="425.603844pt" version="1.1" viewBox="0 0 857.715078 425.603844" width="857.715078pt" xmlns="http://www.w3.org/2000/svg" xmlns:xlink="http://www.w3.org/1999/xlink">
 <defs>
  <style type="text/css">
*{stroke-linecap:butt;stroke-linejoin:round;white-space:pre;}
  </style>
 </defs>
 <g id="figure_1">
  <g id="patch_1">
   <path d="M 0 425.603844 
L 857.715078 425.603844 
L 857.715078 0 
L 0 0 
z
" style="fill:#ffffff;"/>
  </g>
  <g id="axes_1">
   <g id="patch_2">
    <path d="M 56.127031 383.58275 
L 841.339531 383.58275 
L 841.339531 23.68275 
L 56.127031 23.68275 
z
" style="fill:#ffffff;"/>
   </g>
   <g id="matplotlib.axis_1">
    <g id="xtick_1">
     <g id="line2d_1">
      <path clip-path="url(#p56f484c272)" d="M 56.127031 383.58275 
L 56.127031 23.68275 
" style="fill:none;stroke:#ffffff;stroke-dasharray:3.7,1.6;stroke-dashoffset:0;"/>
     </g>
     <g id="line2d_2">
      <defs>
       <path d="M 0 0 
L 0 6 
" id="m9f651547b0" style="stroke:#555555;stroke-width:1.25;"/>
      </defs>
      <g>
       <use style="fill:#555555;stroke:#555555;stroke-width:1.25;" x="56.127031" xlink:href="#m9f651547b0" y="383.58275"/>
      </g>
     </g>
     <g id="text_1">
      <!-- 0 -->
      <defs>
       <path d="M 4.15625 35.296875 
Q 4.15625 48 6.765625 55.734375 
Q 9.375 63.484375 14.515625 67.671875 
Q 19.671875 71.875 27.484375 71.875 
Q 33.25 71.875 37.59375 69.546875 
Q 41.9375 67.234375 44.765625 62.859375 
Q 47.609375 58.5 49.21875 52.21875 
Q 50.828125 45.953125 50.828125 35.296875 
Q 50.828125 22.703125 48.234375 14.96875 
Q 45.65625 7.234375 40.5 3 
Q 35.359375 -1.21875 27.484375 -1.21875 
Q 17.140625 -1.21875 11.234375 6.203125 
Q 4.15625 15.140625 4.15625 35.296875 
z
M 13.1875 35.296875 
Q 13.1875 17.671875 17.3125 11.828125 
Q 21.4375 6 27.484375 6 
Q 33.546875 6 37.671875 11.859375 
Q 41.796875 17.71875 41.796875 35.296875 
Q 41.796875 52.984375 37.671875 58.78125 
Q 33.546875 64.59375 27.390625 64.59375 
Q 21.34375 64.59375 17.71875 59.46875 
Q 13.1875 52.9375 13.1875 35.296875 
z
" id="ArialMT-48"/>
      </defs>
      <g style="fill:#555555;" transform="translate(53.068516 400.956344)scale(0.11 -0.11)">
       <use xlink:href="#ArialMT-48"/>
      </g>
     </g>
    </g>
    <g id="xtick_2">
     <g id="line2d_3">
      <path clip-path="url(#p56f484c272)" d="M 186.995781 383.58275 
L 186.995781 23.68275 
" style="fill:none;stroke:#ffffff;stroke-dasharray:3.7,1.6;stroke-dashoffset:0;"/>
     </g>
     <g id="line2d_4">
      <g>
       <use style="fill:#555555;stroke:#555555;stroke-width:1.25;" x="186.995781" xlink:href="#m9f651547b0" y="383.58275"/>
      </g>
     </g>
     <g id="text_2">
      <!-- 20 -->
      <defs>
       <path d="M 50.34375 8.453125 
L 50.34375 0 
L 3.03125 0 
Q 2.9375 3.171875 4.046875 6.109375 
Q 5.859375 10.9375 9.828125 15.625 
Q 13.8125 20.3125 21.34375 26.46875 
Q 33.015625 36.03125 37.109375 41.625 
Q 41.21875 47.21875 41.21875 52.203125 
Q 41.21875 57.421875 37.46875 61 
Q 33.734375 64.59375 27.734375 64.59375 
Q 21.390625 64.59375 17.578125 60.78125 
Q 13.765625 56.984375 13.71875 50.25 
L 4.6875 51.171875 
Q 5.609375 61.28125 11.65625 66.578125 
Q 17.71875 71.875 27.9375 71.875 
Q 38.234375 71.875 44.234375 66.15625 
Q 50.25 60.453125 50.25 52 
Q 50.25 47.703125 48.484375 43.546875 
Q 46.734375 39.40625 42.65625 34.8125 
Q 38.578125 30.21875 29.109375 22.21875 
Q 21.1875 15.578125 18.9375 13.203125 
Q 16.703125 10.84375 15.234375 8.453125 
z
" id="ArialMT-50"/>
      </defs>
      <g style="fill:#555555;" transform="translate(180.87875 400.956344)scale(0.11 -0.11)">
       <use xlink:href="#ArialMT-50"/>
       <use x="55.615234" xlink:href="#ArialMT-48"/>
      </g>
     </g>
    </g>
    <g id="xtick_3">
     <g id="line2d_5">
      <path clip-path="url(#p56f484c272)" d="M 317.864531 383.58275 
L 317.864531 23.68275 
" style="fill:none;stroke:#ffffff;stroke-dasharray:3.7,1.6;stroke-dashoffset:0;"/>
     </g>
     <g id="line2d_6">
      <g>
       <use style="fill:#555555;stroke:#555555;stroke-width:1.25;" x="317.864531" xlink:href="#m9f651547b0" y="383.58275"/>
      </g>
     </g>
     <g id="text_3">
      <!-- 40 -->
      <defs>
       <path d="M 32.328125 0 
L 32.328125 17.140625 
L 1.265625 17.140625 
L 1.265625 25.203125 
L 33.9375 71.578125 
L 41.109375 71.578125 
L 41.109375 25.203125 
L 50.78125 25.203125 
L 50.78125 17.140625 
L 41.109375 17.140625 
L 41.109375 0 
z
M 32.328125 25.203125 
L 32.328125 57.46875 
L 9.90625 25.203125 
z
" id="ArialMT-52"/>
      </defs>
      <g style="fill:#555555;" transform="translate(311.7475 400.956344)scale(0.11 -0.11)">
       <use xlink:href="#ArialMT-52"/>
       <use x="55.615234" xlink:href="#ArialMT-48"/>
      </g>
     </g>
    </g>
    <g id="xtick_4">
     <g id="line2d_7">
      <path clip-path="url(#p56f484c272)" d="M 448.733281 383.58275 
L 448.733281 23.68275 
" style="fill:none;stroke:#ffffff;stroke-dasharray:3.7,1.6;stroke-dashoffset:0;"/>
     </g>
     <g id="line2d_8">
      <g>
       <use style="fill:#555555;stroke:#555555;stroke-width:1.25;" x="448.733281" xlink:href="#m9f651547b0" y="383.58275"/>
      </g>
     </g>
     <g id="text_4">
      <!-- 60 -->
      <defs>
       <path d="M 49.75 54.046875 
L 41.015625 53.375 
Q 39.84375 58.546875 37.703125 60.890625 
Q 34.125 64.65625 28.90625 64.65625 
Q 24.703125 64.65625 21.53125 62.3125 
Q 17.390625 59.28125 14.984375 53.46875 
Q 12.59375 47.65625 12.5 36.921875 
Q 15.671875 41.75 20.265625 44.09375 
Q 24.859375 46.4375 29.890625 46.4375 
Q 38.671875 46.4375 44.84375 39.96875 
Q 51.03125 33.5 51.03125 23.25 
Q 51.03125 16.5 48.125 10.71875 
Q 45.21875 4.9375 40.140625 1.859375 
Q 35.0625 -1.21875 28.609375 -1.21875 
Q 17.625 -1.21875 10.6875 6.859375 
Q 3.765625 14.9375 3.765625 33.5 
Q 3.765625 54.25 11.421875 63.671875 
Q 18.109375 71.875 29.4375 71.875 
Q 37.890625 71.875 43.28125 67.140625 
Q 48.6875 62.40625 49.75 54.046875 
z
M 13.875 23.1875 
Q 13.875 18.65625 15.796875 14.5 
Q 17.71875 10.359375 21.1875 8.171875 
Q 24.65625 6 28.46875 6 
Q 34.03125 6 38.03125 10.484375 
Q 42.046875 14.984375 42.046875 22.703125 
Q 42.046875 30.125 38.078125 34.390625 
Q 34.125 38.671875 28.125 38.671875 
Q 22.171875 38.671875 18.015625 34.390625 
Q 13.875 30.125 13.875 23.1875 
z
" id="ArialMT-54"/>
      </defs>
      <g style="fill:#555555;" transform="translate(442.61625 400.956344)scale(0.11 -0.11)">
       <use xlink:href="#ArialMT-54"/>
       <use x="55.615234" xlink:href="#ArialMT-48"/>
      </g>
     </g>
    </g>
    <g id="xtick_5">
     <g id="line2d_9">
      <path clip-path="url(#p56f484c272)" d="M 579.602031 383.58275 
L 579.602031 23.68275 
" style="fill:none;stroke:#ffffff;stroke-dasharray:3.7,1.6;stroke-dashoffset:0;"/>
     </g>
     <g id="line2d_10">
      <g>
       <use style="fill:#555555;stroke:#555555;stroke-width:1.25;" x="579.602031" xlink:href="#m9f651547b0" y="383.58275"/>
      </g>
     </g>
     <g id="text_5">
      <!-- 80 -->
      <defs>
       <path d="M 17.671875 38.8125 
Q 12.203125 40.828125 9.5625 44.53125 
Q 6.9375 48.25 6.9375 53.421875 
Q 6.9375 61.234375 12.546875 66.546875 
Q 18.171875 71.875 27.484375 71.875 
Q 36.859375 71.875 42.578125 66.421875 
Q 48.296875 60.984375 48.296875 53.171875 
Q 48.296875 48.1875 45.671875 44.5 
Q 43.0625 40.828125 37.75 38.8125 
Q 44.34375 36.671875 47.78125 31.875 
Q 51.21875 27.09375 51.21875 20.453125 
Q 51.21875 11.28125 44.71875 5.03125 
Q 38.234375 -1.21875 27.640625 -1.21875 
Q 17.046875 -1.21875 10.546875 5.046875 
Q 4.046875 11.328125 4.046875 20.703125 
Q 4.046875 27.6875 7.59375 32.390625 
Q 11.140625 37.109375 17.671875 38.8125 
z
M 15.921875 53.71875 
Q 15.921875 48.640625 19.1875 45.40625 
Q 22.46875 42.1875 27.6875 42.1875 
Q 32.765625 42.1875 36.015625 45.375 
Q 39.265625 48.578125 39.265625 53.21875 
Q 39.265625 58.0625 35.90625 61.359375 
Q 32.5625 64.65625 27.59375 64.65625 
Q 22.5625 64.65625 19.234375 61.421875 
Q 15.921875 58.203125 15.921875 53.71875 
z
M 13.09375 20.65625 
Q 13.09375 16.890625 14.875 13.375 
Q 16.65625 9.859375 20.171875 7.921875 
Q 23.6875 6 27.734375 6 
Q 34.03125 6 38.125 10.046875 
Q 42.234375 14.109375 42.234375 20.359375 
Q 42.234375 26.703125 38.015625 30.859375 
Q 33.796875 35.015625 27.4375 35.015625 
Q 21.234375 35.015625 17.15625 30.90625 
Q 13.09375 26.8125 13.09375 20.65625 
z
" id="ArialMT-56"/>
      </defs>
      <g style="fill:#555555;" transform="translate(573.485 400.956344)scale(0.11 -0.11)">
       <use xlink:href="#ArialMT-56"/>
       <use x="55.615234" xlink:href="#ArialMT-48"/>
      </g>
     </g>
    </g>
    <g id="xtick_6">
     <g id="line2d_11">
      <path clip-path="url(#p56f484c272)" d="M 710.470781 383.58275 
L 710.470781 23.68275 
" style="fill:none;stroke:#ffffff;stroke-dasharray:3.7,1.6;stroke-dashoffset:0;"/>
     </g>
     <g id="line2d_12">
      <g>
       <use style="fill:#555555;stroke:#555555;stroke-width:1.25;" x="710.470781" xlink:href="#m9f651547b0" y="383.58275"/>
      </g>
     </g>
     <g id="text_6">
      <!-- 100 -->
      <defs>
       <path d="M 37.25 0 
L 28.46875 0 
L 28.46875 56 
Q 25.296875 52.984375 20.140625 49.953125 
Q 14.984375 46.921875 10.890625 45.40625 
L 10.890625 53.90625 
Q 18.265625 57.375 23.78125 62.296875 
Q 29.296875 67.234375 31.59375 71.875 
L 37.25 71.875 
z
" id="ArialMT-49"/>
      </defs>
      <g style="fill:#555555;" transform="translate(701.295234 400.956344)scale(0.11 -0.11)">
       <use xlink:href="#ArialMT-49"/>
       <use x="55.615234" xlink:href="#ArialMT-48"/>
       <use x="111.230469" xlink:href="#ArialMT-48"/>
      </g>
     </g>
    </g>
    <g id="xtick_7">
     <g id="line2d_13">
      <path clip-path="url(#p56f484c272)" d="M 841.339531 383.58275 
L 841.339531 23.68275 
" style="fill:none;stroke:#ffffff;stroke-dasharray:3.7,1.6;stroke-dashoffset:0;"/>
     </g>
     <g id="line2d_14">
      <g>
       <use style="fill:#555555;stroke:#555555;stroke-width:1.25;" x="841.339531" xlink:href="#m9f651547b0" y="383.58275"/>
      </g>
     </g>
     <g id="text_7">
      <!-- 120 -->
      <g style="fill:#555555;" transform="translate(832.163984 400.956344)scale(0.11 -0.11)">
       <use xlink:href="#ArialMT-49"/>
       <use x="55.615234" xlink:href="#ArialMT-50"/>
       <use x="111.230469" xlink:href="#ArialMT-48"/>
      </g>
     </g>
    </g>
    <g id="text_8">
     <!-- # days -->
     <defs>
      <path d="M 5.03125 -1.21875 
L 9.28125 19.578125 
L 1.03125 19.578125 
L 1.03125 26.859375 
L 10.75 26.859375 
L 14.359375 44.578125 
L 1.03125 44.578125 
L 1.03125 51.859375 
L 15.828125 51.859375 
L 20.0625 72.796875 
L 27.390625 72.796875 
L 23.140625 51.859375 
L 38.53125 51.859375 
L 42.78125 72.796875 
L 50.140625 72.796875 
L 45.90625 51.859375 
L 54.34375 51.859375 
L 54.34375 44.578125 
L 44.4375 44.578125 
L 40.765625 26.859375 
L 54.34375 26.859375 
L 54.34375 19.578125 
L 39.3125 19.578125 
L 35.0625 -1.21875 
L 27.734375 -1.21875 
L 31.9375 19.578125 
L 16.609375 19.578125 
L 12.359375 -1.21875 
z
M 18.0625 26.859375 
L 33.40625 26.859375 
L 37.0625 44.578125 
L 21.6875 44.578125 
z
" id="ArialMT-35"/>
      <path id="ArialMT-32"/>
      <path d="M 40.234375 0 
L 40.234375 6.546875 
Q 35.296875 -1.171875 25.734375 -1.171875 
Q 19.53125 -1.171875 14.328125 2.25 
Q 9.125 5.671875 6.265625 11.796875 
Q 3.421875 17.921875 3.421875 25.875 
Q 3.421875 33.640625 6 39.96875 
Q 8.59375 46.296875 13.765625 49.65625 
Q 18.953125 53.03125 25.34375 53.03125 
Q 30.03125 53.03125 33.6875 51.046875 
Q 37.359375 49.078125 39.65625 45.90625 
L 39.65625 71.578125 
L 48.390625 71.578125 
L 48.390625 0 
z
M 12.453125 25.875 
Q 12.453125 15.921875 16.640625 10.984375 
Q 20.84375 6.0625 26.5625 6.0625 
Q 32.328125 6.0625 36.34375 10.765625 
Q 40.375 15.484375 40.375 25.140625 
Q 40.375 35.796875 36.265625 40.765625 
Q 32.171875 45.75 26.171875 45.75 
Q 20.3125 45.75 16.375 40.96875 
Q 12.453125 36.1875 12.453125 25.875 
z
" id="ArialMT-100"/>
      <path d="M 40.4375 6.390625 
Q 35.546875 2.25 31.03125 0.53125 
Q 26.515625 -1.171875 21.34375 -1.171875 
Q 12.796875 -1.171875 8.203125 3 
Q 3.609375 7.171875 3.609375 13.671875 
Q 3.609375 17.484375 5.34375 20.625 
Q 7.078125 23.78125 9.890625 25.6875 
Q 12.703125 27.59375 16.21875 28.5625 
Q 18.796875 29.25 24.03125 29.890625 
Q 34.671875 31.15625 39.703125 32.90625 
Q 39.75 34.71875 39.75 35.203125 
Q 39.75 40.578125 37.25 42.78125 
Q 33.890625 45.75 27.25 45.75 
Q 21.046875 45.75 18.09375 43.578125 
Q 15.140625 41.40625 13.71875 35.890625 
L 5.125 37.0625 
Q 6.296875 42.578125 8.984375 45.96875 
Q 11.671875 49.359375 16.75 51.1875 
Q 21.828125 53.03125 28.515625 53.03125 
Q 35.15625 53.03125 39.296875 51.46875 
Q 43.453125 49.90625 45.40625 47.53125 
Q 47.359375 45.171875 48.140625 41.546875 
Q 48.578125 39.3125 48.578125 33.453125 
L 48.578125 21.734375 
Q 48.578125 9.46875 49.140625 6.21875 
Q 49.703125 2.984375 51.375 0 
L 42.1875 0 
Q 40.828125 2.734375 40.4375 6.390625 
z
M 39.703125 26.03125 
Q 34.90625 24.078125 25.34375 22.703125 
Q 19.921875 21.921875 17.671875 20.9375 
Q 15.4375 19.96875 14.203125 18.09375 
Q 12.984375 16.21875 12.984375 13.921875 
Q 12.984375 10.40625 15.640625 8.0625 
Q 18.3125 5.71875 23.4375 5.71875 
Q 28.515625 5.71875 32.46875 7.9375 
Q 36.421875 10.15625 38.28125 14.015625 
Q 39.703125 17 39.703125 22.796875 
z
" id="ArialMT-97"/>
      <path d="M 6.203125 -19.96875 
L 5.21875 -11.71875 
Q 8.109375 -12.5 10.25 -12.5 
Q 13.1875 -12.5 14.9375 -11.515625 
Q 16.703125 -10.546875 17.828125 -8.796875 
Q 18.65625 -7.46875 20.515625 -2.25 
Q 20.75 -1.515625 21.296875 -0.09375 
L 1.609375 51.859375 
L 11.078125 51.859375 
L 21.875 21.828125 
Q 23.96875 16.109375 25.640625 9.8125 
Q 27.15625 15.875 29.25 21.625 
L 40.328125 51.859375 
L 49.125 51.859375 
L 29.390625 -0.875 
Q 26.21875 -9.421875 24.46875 -12.640625 
Q 22.125 -17 19.09375 -19.015625 
Q 16.0625 -21.046875 11.859375 -21.046875 
Q 9.328125 -21.046875 6.203125 -19.96875 
z
" id="ArialMT-121"/>
      <path d="M 3.078125 15.484375 
L 11.765625 16.84375 
Q 12.5 11.625 15.84375 8.84375 
Q 19.1875 6.0625 25.203125 6.0625 
Q 31.25 6.0625 34.171875 8.515625 
Q 37.109375 10.984375 37.109375 14.3125 
Q 37.109375 17.28125 34.515625 19 
Q 32.71875 20.171875 25.53125 21.96875 
Q 15.875 24.421875 12.140625 26.203125 
Q 8.40625 27.984375 6.46875 31.125 
Q 4.546875 34.28125 4.546875 38.09375 
Q 4.546875 41.546875 6.125 44.5 
Q 7.71875 47.46875 10.453125 49.421875 
Q 12.5 50.921875 16.03125 51.96875 
Q 19.578125 53.03125 23.640625 53.03125 
Q 29.734375 53.03125 34.34375 51.265625 
Q 38.96875 49.515625 41.15625 46.5 
Q 43.359375 43.5 44.1875 38.484375 
L 35.59375 37.3125 
Q 35.015625 41.3125 32.203125 43.546875 
Q 29.390625 45.796875 24.265625 45.796875 
Q 18.21875 45.796875 15.625 43.796875 
Q 13.03125 41.796875 13.03125 39.109375 
Q 13.03125 37.40625 14.109375 36.03125 
Q 15.1875 34.625 17.484375 33.6875 
Q 18.796875 33.203125 25.25 31.453125 
Q 34.578125 28.953125 38.25 27.359375 
Q 41.9375 25.78125 44.03125 22.75 
Q 46.140625 19.734375 46.140625 15.234375 
Q 46.140625 10.84375 43.578125 6.953125 
Q 41.015625 3.078125 36.171875 0.953125 
Q 31.34375 -1.171875 25.25 -1.171875 
Q 15.140625 -1.171875 9.84375 3.03125 
Q 4.546875 7.234375 3.078125 15.484375 
z
" id="ArialMT-115"/>
     </defs>
     <g style="fill:#555555;" transform="translate(431.056719 415.878219)scale(0.12 -0.12)">
      <use xlink:href="#ArialMT-35"/>
      <use x="55.615234" xlink:href="#ArialMT-32"/>
      <use x="83.398438" xlink:href="#ArialMT-100"/>
      <use x="139.013672" xlink:href="#ArialMT-97"/>
      <use x="194.628906" xlink:href="#ArialMT-121"/>
      <use x="244.628906" xlink:href="#ArialMT-115"/>
     </g>
    </g>
   </g>
   <g id="matplotlib.axis_2">
    <g id="ytick_1">
     <g id="line2d_15">
      <defs>
       <path d="M 0 0 
L -6 0 
" id="m7e42d18984" style="stroke:#555555;stroke-width:1.25;"/>
      </defs>
      <g>
       <use style="fill:#555555;stroke:#555555;stroke-width:1.25;" x="56.127031" xlink:href="#m7e42d18984" y="383.58275"/>
      </g>
     </g>
     <g id="text_9">
      <!-- 0 M -->
      <defs>
       <path d="M 7.421875 0 
L 7.421875 71.578125 
L 21.6875 71.578125 
L 38.625 20.90625 
Q 40.96875 13.8125 42.046875 10.296875 
Q 43.265625 14.203125 45.84375 21.78125 
L 62.984375 71.578125 
L 75.734375 71.578125 
L 75.734375 0 
L 66.609375 0 
L 66.609375 59.90625 
L 45.796875 0 
L 37.25 0 
L 16.546875 60.9375 
L 16.546875 0 
z
" id="ArialMT-77"/>
      </defs>
      <g style="fill:#555555;" transform="translate(28.291406 387.519547)scale(0.11 -0.11)">
       <use xlink:href="#ArialMT-48"/>
       <use x="55.615234" xlink:href="#ArialMT-32"/>
       <use x="83.398438" xlink:href="#ArialMT-77"/>
      </g>
     </g>
    </g>
    <g id="ytick_2">
     <g id="line2d_16">
      <g>
       <use style="fill:#555555;stroke:#555555;stroke-width:1.25;" x="56.127031" xlink:href="#m7e42d18984" y="306.925249"/>
      </g>
     </g>
     <g id="text_10">
      <!-- 5 M -->
      <defs>
       <path d="M 4.15625 18.75 
L 13.375 19.53125 
Q 14.40625 12.796875 18.140625 9.390625 
Q 21.875 6 27.15625 6 
Q 33.5 6 37.890625 10.78125 
Q 42.28125 15.578125 42.28125 23.484375 
Q 42.28125 31 38.0625 35.34375 
Q 33.84375 39.703125 27 39.703125 
Q 22.75 39.703125 19.328125 37.765625 
Q 15.921875 35.84375 13.96875 32.765625 
L 5.71875 33.84375 
L 12.640625 70.609375 
L 48.25 70.609375 
L 48.25 62.203125 
L 19.671875 62.203125 
L 15.828125 42.96875 
Q 22.265625 47.46875 29.34375 47.46875 
Q 38.71875 47.46875 45.15625 40.96875 
Q 51.609375 34.46875 51.609375 24.265625 
Q 51.609375 14.546875 45.953125 7.46875 
Q 39.0625 -1.21875 27.15625 -1.21875 
Q 17.390625 -1.21875 11.203125 4.25 
Q 5.03125 9.71875 4.15625 18.75 
z
" id="ArialMT-53"/>
      </defs>
      <g style="fill:#555555;" transform="translate(28.291406 310.862046)scale(0.11 -0.11)">
       <use xlink:href="#ArialMT-53"/>
       <use x="55.615234" xlink:href="#ArialMT-32"/>
       <use x="83.398438" xlink:href="#ArialMT-77"/>
      </g>
     </g>
    </g>
    <g id="ytick_3">
     <g id="line2d_17">
      <g>
       <use style="fill:#555555;stroke:#555555;stroke-width:1.25;" x="56.127031" xlink:href="#m7e42d18984" y="230.267748"/>
      </g>
     </g>
     <g id="text_11">
      <!-- 10 M -->
      <g style="fill:#555555;" transform="translate(22.174375 234.204544)scale(0.11 -0.11)">
       <use xlink:href="#ArialMT-49"/>
       <use x="55.615234" xlink:href="#ArialMT-48"/>
       <use x="111.230469" xlink:href="#ArialMT-32"/>
       <use x="139.013672" xlink:href="#ArialMT-77"/>
      </g>
     </g>
    </g>
    <g id="ytick_4">
     <g id="line2d_18">
      <g>
       <use style="fill:#555555;stroke:#555555;stroke-width:1.25;" x="56.127031" xlink:href="#m7e42d18984" y="153.610246"/>
      </g>
     </g>
     <g id="text_12">
      <!-- 15 M -->
      <g style="fill:#555555;" transform="translate(22.174375 157.547043)scale(0.11 -0.11)">
       <use xlink:href="#ArialMT-49"/>
       <use x="55.615234" xlink:href="#ArialMT-53"/>
       <use x="111.230469" xlink:href="#ArialMT-32"/>
       <use x="139.013672" xlink:href="#ArialMT-77"/>
      </g>
     </g>
    </g>
    <g id="ytick_5">
     <g id="line2d_19">
      <g>
       <use style="fill:#555555;stroke:#555555;stroke-width:1.25;" x="56.127031" xlink:href="#m7e42d18984" y="76.952745"/>
      </g>
     </g>
     <g id="text_13">
      <!-- 20 M -->
      <g style="fill:#555555;" transform="translate(22.174375 80.889542)scale(0.11 -0.11)">
       <use xlink:href="#ArialMT-50"/>
       <use x="55.615234" xlink:href="#ArialMT-48"/>
       <use x="111.230469" xlink:href="#ArialMT-32"/>
       <use x="139.013672" xlink:href="#ArialMT-77"/>
      </g>
     </g>
    </g>
    <g id="text_14">
     <!-- # hits -->
     <defs>
      <path d="M 6.59375 0 
L 6.59375 71.578125 
L 15.375 71.578125 
L 15.375 45.90625 
Q 21.53125 53.03125 30.90625 53.03125 
Q 36.671875 53.03125 40.921875 50.75 
Q 45.171875 48.484375 47 44.484375 
Q 48.828125 40.484375 48.828125 32.859375 
L 48.828125 0 
L 40.046875 0 
L 40.046875 32.859375 
Q 40.046875 39.453125 37.1875 42.453125 
Q 34.328125 45.453125 29.109375 45.453125 
Q 25.203125 45.453125 21.75 43.421875 
Q 18.3125 41.40625 16.84375 37.9375 
Q 15.375 34.46875 15.375 28.375 
L 15.375 0 
z
" id="ArialMT-104"/>
      <path d="M 6.640625 61.46875 
L 6.640625 71.578125 
L 15.4375 71.578125 
L 15.4375 61.46875 
z
M 6.640625 0 
L 6.640625 51.859375 
L 15.4375 51.859375 
L 15.4375 0 
z
" id="ArialMT-105"/>
      <path d="M 25.78125 7.859375 
L 27.046875 0.09375 
Q 23.34375 -0.6875 20.40625 -0.6875 
Q 15.625 -0.6875 12.984375 0.828125 
Q 10.359375 2.34375 9.28125 4.8125 
Q 8.203125 7.28125 8.203125 15.1875 
L 8.203125 45.015625 
L 1.765625 45.015625 
L 1.765625 51.859375 
L 8.203125 51.859375 
L 8.203125 64.703125 
L 16.9375 69.96875 
L 16.9375 51.859375 
L 25.78125 51.859375 
L 25.78125 45.015625 
L 16.9375 45.015625 
L 16.9375 14.703125 
Q 16.9375 10.9375 17.40625 9.859375 
Q 17.875 8.796875 18.921875 8.15625 
Q 19.96875 7.515625 21.921875 7.515625 
Q 23.390625 7.515625 25.78125 7.859375 
z
" id="ArialMT-116"/>
     </defs>
     <g style="fill:#555555;" transform="translate(15.789375 217.97275)rotate(-90)scale(0.12 -0.12)">
      <use xlink:href="#ArialMT-35"/>
      <use x="55.615234" xlink:href="#ArialMT-32"/>
      <use x="83.398438" xlink:href="#ArialMT-104"/>
      <use x="139.013672" xlink:href="#ArialMT-105"/>
      <use x="161.230469" xlink:href="#ArialMT-116"/>
      <use x="189.013672" xlink:href="#ArialMT-115"/>
     </g>
    </g>
   </g>
   <g id="PolyCollection_1">
    <defs>
     <path d="M 56.127031 -42.665937 
L 56.127031 -42.021094 
L 62.670469 -42.021094 
L 69.213906 -42.021094 
L 75.757344 -42.021094 
L 82.300781 -42.021094 
L 88.844219 -42.021094 
L 95.387656 -42.021094 
L 101.931094 -42.021094 
L 108.474531 -42.021094 
L 115.017969 -42.021094 
L 121.561406 -42.021094 
L 128.104844 -42.021094 
L 134.648281 -42.021094 
L 141.191719 -42.021094 
L 147.735156 -42.021094 
L 154.278594 -42.021094 
L 160.822031 -42.021094 
L 167.365469 -42.021094 
L 173.908906 -42.021094 
L 180.452344 -42.021094 
L 186.995781 -42.021094 
L 193.539219 -42.021094 
L 200.082656 -42.021094 
L 206.626094 -42.021094 
L 213.169531 -42.021094 
L 219.712969 -42.021094 
L 226.256406 -42.021094 
L 232.799844 -42.021094 
L 239.343281 -42.021094 
L 245.886719 -42.021094 
L 252.430156 -42.021094 
L 258.973594 -42.021094 
L 265.517031 -42.021094 
L 272.060469 -42.021094 
L 278.603906 -42.021094 
L 285.147344 -42.021094 
L 291.690781 -42.021094 
L 298.234219 -42.021094 
L 304.777656 -42.021094 
L 311.321094 -42.021094 
L 317.864531 -42.021094 
L 324.407969 -42.021094 
L 330.951406 -42.021094 
L 337.494844 -42.021094 
L 344.038281 -42.021094 
L 350.581719 -42.021094 
L 357.125156 -42.021094 
L 363.668594 -42.021094 
L 370.212031 -42.021094 
L 376.755469 -42.021094 
L 383.298906 -42.021094 
L 389.842344 -42.021094 
L 396.385781 -42.021094 
L 402.929219 -42.021094 
L 409.472656 -42.021094 
L 416.016094 -42.021094 
L 422.559531 -42.021094 
L 429.102969 -42.021094 
L 435.646406 -42.021094 
L 442.189844 -42.021094 
L 448.733281 -42.021094 
L 455.276719 -42.021094 
L 461.820156 -42.021094 
L 468.363594 -42.021094 
L 474.907031 -42.021094 
L 481.450469 -42.021094 
L 487.993906 -42.021094 
L 494.537344 -42.021094 
L 501.080781 -42.021094 
L 507.624219 -42.021094 
L 514.167656 -42.021094 
L 520.711094 -42.021094 
L 527.254531 -42.021094 
L 533.797969 -42.021094 
L 540.341406 -42.021094 
L 546.884844 -42.021094 
L 553.428281 -42.021094 
L 559.971719 -42.021094 
L 566.515156 -42.021094 
L 573.058594 -42.021094 
L 579.602031 -42.021094 
L 586.145469 -42.021094 
L 592.688906 -42.021094 
L 599.232344 -42.021094 
L 605.775781 -42.021094 
L 612.319219 -42.021094 
L 618.862656 -42.021094 
L 625.406094 -42.021094 
L 631.949531 -42.021094 
L 638.492969 -42.021094 
L 645.036406 -42.021094 
L 651.579844 -42.021094 
L 658.123281 -42.021094 
L 664.666719 -42.021094 
L 671.210156 -42.021094 
L 677.753594 -42.021094 
L 684.297031 -42.021094 
L 690.840469 -42.021094 
L 697.383906 -42.021094 
L 703.927344 -42.021094 
L 710.470781 -42.021094 
L 717.014219 -42.021094 
L 723.557656 -42.021094 
L 730.101094 -42.021094 
L 736.644531 -42.021094 
L 743.187969 -42.021094 
L 749.731406 -42.021094 
L 756.274844 -42.021094 
L 762.818281 -42.021094 
L 769.361719 -42.021094 
L 775.905156 -42.021094 
L 782.448594 -42.021094 
L 788.992031 -42.021094 
L 795.535469 -42.021094 
L 802.078906 -42.021094 
L 808.622344 -42.021094 
L 815.165781 -42.021094 
L 821.709219 -42.021094 
L 828.252656 -42.021094 
L 834.796094 -42.021094 
L 841.339531 -42.021094 
L 841.339531 -45.396017 
L 841.339531 -45.396017 
L 834.796094 -45.357995 
L 828.252656 -45.262633 
L 821.709219 -45.054891 
L 815.165781 -44.798855 
L 808.622344 -44.765432 
L 802.078906 -45.185209 
L 795.535469 -45.50763 
L 788.992031 -45.947338 
L 782.448594 -44.191114 
L 775.905156 -44.976547 
L 769.361719 -44.706866 
L 762.818281 -44.674057 
L 756.274844 -45.355695 
L 749.731406 -45.180916 
L 743.187969 -44.443471 
L 736.644531 -46.511384 
L 730.101094 -45.537833 
L 723.557656 -44.67467 
L 717.014219 -45.307707 
L 710.470781 -46.019396 
L 703.927344 -44.284023 
L 697.383906 -45.148873 
L 690.840469 -45.20468 
L 684.297031 -45.211272 
L 677.753594 -44.992492 
L 671.210156 -45.323652 
L 664.666719 -47.137522 
L 658.123281 -47.422688 
L 651.579844 -44.663631 
L 645.036406 -44.527794 
L 638.492969 -44.396863 
L 631.949531 -44.836417 
L 625.406094 -44.284023 
L 618.862656 -46.381219 
L 612.319219 -45.881566 
L 605.775781 -45.151939 
L 599.232344 -45.607285 
L 592.688906 -44.22469 
L 586.145469 -45.295442 
L 579.602031 -45.641321 
L 573.058594 -45.857648 
L 566.515156 -44.64508 
L 559.971719 -44.366507 
L 553.428281 -45.104412 
L 546.884844 -44.476434 
L 540.341406 -45.039713 
L 533.797969 -44.885478 
L 527.254531 -45.835571 
L 520.711094 -45.013649 
L 514.167656 -44.794102 
L 507.624219 -44.705179 
L 501.080781 -45.129555 
L 494.537344 -45.774398 
L 487.993906 -44.445771 
L 481.450469 -44.509856 
L 474.907031 -44.647226 
L 468.363594 -45.949024 
L 461.820156 -44.935919 
L 455.276719 -44.689695 
L 448.733281 -45.824379 
L 442.189844 -44.538066 
L 435.646406 -45.197321 
L 429.102969 -46.253508 
L 422.559531 -45.449984 
L 416.016094 -45.357688 
L 409.472656 -46.359295 
L 402.929219 -45.23013 
L 396.385781 -44.387817 
L 389.842344 -45.540593 
L 383.298906 -44.950637 
L 376.755469 -44.689388 
L 370.212031 -44.307634 
L 363.668594 -44.509396 
L 357.125156 -44.289083 
L 350.581719 -44.712845 
L 344.038281 -44.334617 
L 337.494844 -44.072448 
L 330.951406 -44.78797 
L 324.407969 -46.759294 
L 317.864531 -44.810507 
L 311.321094 -44.866467 
L 304.777656 -44.782297 
L 298.234219 -45.414568 
L 291.690781 -45.499045 
L 285.147344 -45.693295 
L 278.603906 -45.836184 
L 272.060469 -44.825378 
L 265.517031 -45.17601 
L 258.973594 -50.933295 
L 252.430156 -50.606121 
L 245.886719 -46.674664 
L 239.343281 -51.067139 
L 232.799844 -45.168497 
L 226.256406 -46.129169 
L 219.712969 -45.319973 
L 213.169531 -45.743122 
L 206.626094 -46.253814 
L 200.082656 -45.76428 
L 193.539219 -44.577161 
L 186.995781 -45.411348 
L 180.452344 -45.562824 
L 173.908906 -45.158379 
L 167.365469 -44.800848 
L 160.822031 -45.511156 
L 154.278594 -45.443698 
L 147.735156 -45.90027 
L 141.191719 -45.732237 
L 134.648281 -44.540213 
L 128.104844 -45.136148 
L 121.561406 -45.020395 
L 115.017969 -45.415948 
L 108.474531 -45.461482 
L 101.931094 -44.883485 
L 95.387656 -44.994485 
L 88.844219 -44.497744 
L 82.300781 -44.292456 
L 75.757344 -44.167504 
L 69.213906 -43.657118 
L 62.670469 -44.692761 
L 56.127031 -42.665937 
z
" id="m63a8beec54" style="stroke:#ee9697;stroke-width:0.5;"/>
    </defs>
    <g clip-path="url(#p56f484c272)">
     <use style="fill:#ee9697;stroke:#ee9697;stroke-width:0.5;" x="0" xlink:href="#m63a8beec54" y="425.603844"/>
    </g>
   </g>
   <g id="PolyCollection_2">
    <defs>
     <path d="M 56.127031 -43.747727 
L 56.127031 -42.665937 
L 62.670469 -44.692761 
L 69.213906 -43.657118 
L 75.757344 -44.167504 
L 82.300781 -44.292456 
L 88.844219 -44.497744 
L 95.387656 -44.994485 
L 101.931094 -44.883485 
L 108.474531 -45.461482 
L 115.017969 -45.415948 
L 121.561406 -45.020395 
L 128.104844 -45.136148 
L 134.648281 -44.540213 
L 141.191719 -45.732237 
L 147.735156 -45.90027 
L 154.278594 -45.443698 
L 160.822031 -45.511156 
L 167.365469 -44.800848 
L 173.908906 -45.158379 
L 180.452344 -45.562824 
L 186.995781 -45.411348 
L 193.539219 -44.577161 
L 200.082656 -45.76428 
L 206.626094 -46.253814 
L 213.169531 -45.743122 
L 219.712969 -45.319973 
L 226.256406 -46.129169 
L 232.799844 -45.168497 
L 239.343281 -51.067139 
L 245.886719 -46.674664 
L 252.430156 -50.606121 
L 258.973594 -50.933295 
L 265.517031 -45.17601 
L 272.060469 -44.825378 
L 278.603906 -45.836184 
L 285.147344 -45.693295 
L 291.690781 -45.499045 
L 298.234219 -45.414568 
L 304.777656 -44.782297 
L 311.321094 -44.866467 
L 317.864531 -44.810507 
L 324.407969 -46.759294 
L 330.951406 -44.78797 
L 337.494844 -44.072448 
L 344.038281 -44.334617 
L 350.581719 -44.712845 
L 357.125156 -44.289083 
L 363.668594 -44.509396 
L 370.212031 -44.307634 
L 376.755469 -44.689388 
L 383.298906 -44.950637 
L 389.842344 -45.540593 
L 396.385781 -44.387817 
L 402.929219 -45.23013 
L 409.472656 -46.359295 
L 416.016094 -45.357688 
L 422.559531 -45.449984 
L 429.102969 -46.253508 
L 435.646406 -45.197321 
L 442.189844 -44.538066 
L 448.733281 -45.824379 
L 455.276719 -44.689695 
L 461.820156 -44.935919 
L 468.363594 -45.949024 
L 474.907031 -44.647226 
L 481.450469 -44.509856 
L 487.993906 -44.445771 
L 494.537344 -45.774398 
L 501.080781 -45.129555 
L 507.624219 -44.705179 
L 514.167656 -44.794102 
L 520.711094 -45.013649 
L 527.254531 -45.835571 
L 533.797969 -44.885478 
L 540.341406 -45.039713 
L 546.884844 -44.476434 
L 553.428281 -45.104412 
L 559.971719 -44.366507 
L 566.515156 -44.64508 
L 573.058594 -45.857648 
L 579.602031 -45.641321 
L 586.145469 -45.295442 
L 592.688906 -44.22469 
L 599.232344 -45.607285 
L 605.775781 -45.151939 
L 612.319219 -45.881566 
L 618.862656 -46.381219 
L 625.406094 -44.284023 
L 631.949531 -44.836417 
L 638.492969 -44.396863 
L 645.036406 -44.527794 
L 651.579844 -44.663631 
L 658.123281 -47.422688 
L 664.666719 -47.137522 
L 671.210156 -45.323652 
L 677.753594 -44.992492 
L 684.297031 -45.211272 
L 690.840469 -45.20468 
L 697.383906 -45.148873 
L 703.927344 -44.284023 
L 710.470781 -46.019396 
L 717.014219 -45.307707 
L 723.557656 -44.67467 
L 730.101094 -45.537833 
L 736.644531 -46.511384 
L 743.187969 -44.443471 
L 749.731406 -45.180916 
L 756.274844 -45.355695 
L 762.818281 -44.674057 
L 769.361719 -44.706866 
L 775.905156 -44.976547 
L 782.448594 -44.191114 
L 788.992031 -45.947338 
L 795.535469 -45.50763 
L 802.078906 -45.185209 
L 808.622344 -44.765432 
L 815.165781 -44.798855 
L 821.709219 -45.054891 
L 828.252656 -45.262633 
L 834.796094 -45.357995 
L 841.339531 -45.396017 
L 841.339531 -51.945021 
L 841.339531 -51.945021 
L 834.796094 -113.317936 
L 828.252656 -69.904493 
L 821.709219 -56.376437 
L 815.165781 -52.123633 
L 808.622344 -51.740038 
L 802.078906 -53.331601 
L 795.535469 -54.608562 
L 788.992031 -55.416839 
L 782.448594 -52.524245 
L 775.905156 -53.134745 
L 769.361719 -52.436088 
L 762.818281 -53.123706 
L 756.274844 -53.664755 
L 749.731406 -53.969085 
L 743.187969 -52.157362 
L 736.644531 -56.473486 
L 730.101094 -54.298712 
L 723.557656 -52.282314 
L 717.014219 -55.003195 
L 710.470781 -56.520094 
L 703.927344 -53.221215 
L 697.383906 -54.74118 
L 690.840469 -54.70929 
L 684.297031 -54.907833 
L 677.753594 -100.200918 
L 671.210156 -170.660353 
L 664.666719 -172.011518 
L 658.123281 -174.02807 
L 651.579844 -111.096402 
L 645.036406 -50.626665 
L 638.492969 -60.451244 
L 631.949531 -61.424334 
L 625.406094 -66.479436 
L 618.862656 -57.701079 
L 612.319219 -52.872423 
L 605.775781 -52.03103 
L 599.232344 -52.542182 
L 592.688906 -49.347558 
L 586.145469 -52.038236 
L 579.602031 -53.339267 
L 573.058594 -54.271882 
L 566.515156 -50.576991 
L 559.971719 -49.80597 
L 553.428281 -52.046055 
L 546.884844 -50.834253 
L 540.341406 -51.988102 
L 533.797969 -51.181205 
L 527.254531 -53.128612 
L 520.711094 -51.366103 
L 514.167656 -51.133064 
L 507.624219 -51.251577 
L 501.080781 -51.806117 
L 494.537344 -52.967938 
L 487.993906 -82.085064 
L 481.450469 -50.41969 
L 474.907031 -54.01002 
L 468.363594 -53.268129 
L 461.820156 -51.097189 
L 455.276719 -51.928309 
L 448.733281 -52.923937 
L 442.189844 -50.146789 
L 435.646406 -52.947394 
L 429.102969 -53.577059 
L 422.559531 -52.197684 
L 416.016094 -52.683539 
L 409.472656 -54.157509 
L 402.929219 -102.328776 
L 396.385781 -50.828734 
L 389.842344 -52.33812 
L 383.298906 -51.474957 
L 376.755469 -50.332147 
L 370.212031 -50.136823 
L 363.668594 -49.953919 
L 357.125156 -49.460398 
L 350.581719 -50.435634 
L 344.038281 -49.742344 
L 337.494844 -48.85235 
L 330.951406 -50.537129 
L 324.407969 -54.542483 
L 317.864531 -50.235865 
L 311.321094 -50.728313 
L 304.777656 -50.71896 
L 298.234219 -52.6771 
L 291.690781 -53.87633 
L 285.147344 -54.000975 
L 278.603906 -54.649957 
L 272.060469 -52.312977 
L 265.517031 -71.201998 
L 258.973594 -86.246799 
L 252.430156 -101.917432 
L 245.886719 -83.064593 
L 239.343281 -116.537091 
L 232.799844 -68.871763 
L 226.256406 -70.974479 
L 219.712969 -91.558091 
L 213.169531 -94.145742 
L 206.626094 -94.717606 
L 200.082656 -92.6523 
L 193.539219 -50.331074 
L 186.995781 -79.847738 
L 180.452344 -80.466517 
L 173.908906 -53.627653 
L 167.365469 -55.131366 
L 160.822031 -58.155351 
L 154.278594 -68.012433 
L 147.735156 -61.322073 
L 141.191719 -53.0124 
L 134.648281 -49.654494 
L 128.104844 -50.981129 
L 121.561406 -50.939121 
L 115.017969 -51.391553 
L 108.474531 -51.924476 
L 101.931094 -50.259629 
L 95.387656 -50.69351 
L 88.844219 -49.88416 
L 82.300781 -49.534755 
L 75.757344 -48.74733 
L 69.213906 -47.020696 
L 62.670469 -49.46699 
L 56.127031 -43.747727 
z
" id="m082afbc2bc" style="stroke:#f7b982;stroke-width:0.5;"/>
    </defs>
    <g clip-path="url(#p56f484c272)">
     <use style="fill:#f7b982;stroke:#f7b982;stroke-width:0.5;" x="0" xlink:href="#m082afbc2bc" y="425.603844"/>
    </g>
   </g>
   <g id="PolyCollection_3">
    <defs>
     <path d="M 56.127031 -51.456406 
L 56.127031 -43.747727 
L 62.670469 -49.46699 
L 69.213906 -47.020696 
L 75.757344 -48.74733 
L 82.300781 -49.534755 
L 88.844219 -49.88416 
L 95.387656 -50.69351 
L 101.931094 -50.259629 
L 108.474531 -51.924476 
L 115.017969 -51.391553 
L 121.561406 -50.939121 
L 128.104844 -50.981129 
L 134.648281 -49.654494 
L 141.191719 -53.0124 
L 147.735156 -61.322073 
L 154.278594 -68.012433 
L 160.822031 -58.155351 
L 167.365469 -55.131366 
L 173.908906 -53.627653 
L 180.452344 -80.466517 
L 186.995781 -79.847738 
L 193.539219 -50.331074 
L 200.082656 -92.6523 
L 206.626094 -94.717606 
L 213.169531 -94.145742 
L 219.712969 -91.558091 
L 226.256406 -70.974479 
L 232.799844 -68.871763 
L 239.343281 -116.537091 
L 245.886719 -83.064593 
L 252.430156 -101.917432 
L 258.973594 -86.246799 
L 265.517031 -71.201998 
L 272.060469 -52.312977 
L 278.603906 -54.649957 
L 285.147344 -54.000975 
L 291.690781 -53.87633 
L 298.234219 -52.6771 
L 304.777656 -50.71896 
L 311.321094 -50.728313 
L 317.864531 -50.235865 
L 324.407969 -54.542483 
L 330.951406 -50.537129 
L 337.494844 -48.85235 
L 344.038281 -49.742344 
L 350.581719 -50.435634 
L 357.125156 -49.460398 
L 363.668594 -49.953919 
L 370.212031 -50.136823 
L 376.755469 -50.332147 
L 383.298906 -51.474957 
L 389.842344 -52.33812 
L 396.385781 -50.828734 
L 402.929219 -102.328776 
L 409.472656 -54.157509 
L 416.016094 -52.683539 
L 422.559531 -52.197684 
L 429.102969 -53.577059 
L 435.646406 -52.947394 
L 442.189844 -50.146789 
L 448.733281 -52.923937 
L 455.276719 -51.928309 
L 461.820156 -51.097189 
L 468.363594 -53.268129 
L 474.907031 -54.01002 
L 481.450469 -50.41969 
L 487.993906 -82.085064 
L 494.537344 -52.967938 
L 501.080781 -51.806117 
L 507.624219 -51.251577 
L 514.167656 -51.133064 
L 520.711094 -51.366103 
L 527.254531 -53.128612 
L 533.797969 -51.181205 
L 540.341406 -51.988102 
L 546.884844 -50.834253 
L 553.428281 -52.046055 
L 559.971719 -49.80597 
L 566.515156 -50.576991 
L 573.058594 -54.271882 
L 579.602031 -53.339267 
L 586.145469 -52.038236 
L 592.688906 -49.347558 
L 599.232344 -52.542182 
L 605.775781 -52.03103 
L 612.319219 -52.872423 
L 618.862656 -57.701079 
L 625.406094 -66.479436 
L 631.949531 -61.424334 
L 638.492969 -60.451244 
L 645.036406 -50.626665 
L 651.579844 -111.096402 
L 658.123281 -174.02807 
L 664.666719 -172.011518 
L 671.210156 -170.660353 
L 677.753594 -100.200918 
L 684.297031 -54.907833 
L 690.840469 -54.70929 
L 697.383906 -54.74118 
L 703.927344 -53.221215 
L 710.470781 -56.520094 
L 717.014219 -55.003195 
L 723.557656 -52.282314 
L 730.101094 -54.298712 
L 736.644531 -56.473486 
L 743.187969 -52.157362 
L 749.731406 -53.969085 
L 756.274844 -53.664755 
L 762.818281 -53.123706 
L 769.361719 -52.436088 
L 775.905156 -53.134745 
L 782.448594 -52.524245 
L 788.992031 -55.416839 
L 795.535469 -54.608562 
L 802.078906 -53.331601 
L 808.622344 -51.740038 
L 815.165781 -52.123633 
L 821.709219 -56.376437 
L 828.252656 -69.904493 
L 834.796094 -113.317936 
L 841.339531 -51.945021 
L 841.339531 -95.21588 
L 841.339531 -95.21588 
L 834.796094 -268.275709 
L 828.252656 -142.440581 
L 821.709219 -102.60183 
L 815.165781 -90.445024 
L 808.622344 -90.956176 
L 802.078906 -96.345352 
L 795.535469 -104.321258 
L 788.992031 -109.865435 
L 782.448594 -89.61145 
L 775.905156 -98.539749 
L 769.361719 -92.713013 
L 762.818281 -94.01895 
L 756.274844 -101.803519 
L 749.731406 -101.020233 
L 743.187969 -92.249542 
L 736.644531 -114.883282 
L 730.101094 -103.853034 
L 723.557656 -91.916081 
L 717.014219 -102.222682 
L 710.470781 -110.881147 
L 703.927344 -95.965744 
L 697.383906 -102.732302 
L 690.840469 -102.15737 
L 684.297031 -101.035871 
L 677.753594 -201.400011 
L 671.210156 -342.019152 
L 664.666719 -370.233098 
L 658.123281 -384.782999 
L 651.579844 -214.404803 
L 645.036406 -88.333723 
L 638.492969 -116.231534 
L 631.949531 -116.584159 
L 625.406094 -131.662229 
L 618.862656 -113.319162 
L 612.319219 -107.259387 
L 605.775781 -95.162373 
L 599.232344 -97.806444 
L 592.688906 -80.574911 
L 586.145469 -94.251529 
L 579.602031 -100.359905 
L 573.058594 -103.820838 
L 566.515156 -89.099532 
L 559.971719 -83.216375 
L 553.428281 -94.312548 
L 546.884844 -86.811458 
L 540.341406 -93.474375 
L 533.797969 -90.953417 
L 527.254531 -102.351007 
L 520.711094 -90.913555 
L 514.167656 -89.714631 
L 507.624219 -87.866112 
L 501.080781 -93.076063 
L 494.537344 -100.632959 
L 487.993906 -151.496131 
L 481.450469 -86.016214 
L 474.907031 -97.971257 
L 468.363594 -102.152464 
L 461.820156 -89.709572 
L 455.276719 -92.691855 
L 448.733281 -101.686847 
L 442.189844 -83.997822 
L 435.646406 -96.203995 
L 429.102969 -104.503243 
L 422.559531 -99.147337 
L 416.016094 -99.117747 
L 409.472656 -103.571395 
L 402.929219 -241.77797 
L 396.385781 -88.712871 
L 389.842344 -103.123561 
L 383.298906 -94.160153 
L 376.755469 -86.820964 
L 370.212031 -84.728521 
L 363.668594 -86.85224 
L 357.125156 -81.984642 
L 350.581719 -88.232229 
L 344.038281 -84.155276 
L 337.494844 -82.22458 
L 330.951406 -86.68344 
L 324.407969 -122.768886 
L 317.864531 -86.747833 
L 311.321094 -87.988458 
L 304.777656 -89.377952 
L 298.234219 -100.255038 
L 291.690781 -105.22827 
L 285.147344 -106.122096 
L 278.603906 -108.578509 
L 272.060469 -95.575404 
L 265.517031 -135.983259 
L 258.973594 -259.858715 
L 252.430156 -244.9312 
L 245.886719 -182.537053 
L 239.343281 -302.658898 
L 232.799844 -133.58158 
L 226.256406 -136.520935 
L 219.712969 -180.193173 
L 213.169531 -184.238543 
L 206.626094 -199.714466 
L 200.082656 -192.226561 
L 193.539219 -86.397048 
L 186.995781 -151.162211 
L 180.452344 -154.785658 
L 173.908906 -96.798551 
L 167.365469 -97.607441 
L 160.822031 -108.583262 
L 154.278594 -128.34204 
L 147.735156 -116.691019 
L 141.191719 -99.95776 
L 134.648281 -83.419671 
L 128.104844 -91.135708 
L 121.561406 -89.758173 
L 115.017969 -93.191356 
L 108.474531 -99.562207 
L 101.931094 -89.1952 
L 95.387656 -88.743841 
L 88.844219 -83.051868 
L 82.300781 -81.555973 
L 75.757344 -75.992172 
L 69.213906 -69.353939 
L 62.670469 -83.765243 
L 56.127031 -51.456406 
z
" id="m4c79967acd" style="stroke:#90abc8;stroke-width:0.5;"/>
    </defs>
    <g clip-path="url(#p56f484c272)">
     <use style="fill:#90abc8;stroke:#90abc8;stroke-width:0.5;" x="0" xlink:href="#m4c79967acd" y="425.603844"/>
    </g>
   </g>
   <g id="line2d_20">
    <path clip-path="url(#p56f484c272)" d="M 56.127031 382.937907 
L 62.670469 380.911083 
L 69.213906 381.946726 
L 75.757344 381.43634 
L 82.300781 381.311388 
L 88.844219 381.106099 
L 95.387656 380.609359 
L 101.931094 380.720359 
L 108.474531 380.142361 
L 115.017969 380.187896 
L 121.561406 380.583449 
L 128.104844 380.467696 
L 134.648281 381.063631 
L 141.191719 379.871607 
L 147.735156 379.703574 
L 154.278594 380.160146 
L 160.822031 380.092687 
L 167.365469 380.802996 
L 173.908906 380.445465 
L 180.452344 380.04102 
L 186.995781 380.192495 
L 193.539219 381.026682 
L 200.082656 379.839564 
L 206.626094 379.350029 
L 213.169531 379.860722 
L 219.712969 380.283871 
L 226.256406 379.474675 
L 232.799844 380.435346 
L 239.343281 374.536705 
L 245.886719 378.92918 
L 252.430156 374.997723 
L 258.973594 374.670549 
L 265.517031 380.427834 
L 272.060469 380.778465 
L 278.603906 379.767659 
L 285.147344 379.910549 
L 291.690781 380.104799 
L 298.234219 380.189276 
L 304.777656 380.821547 
L 311.321094 380.737377 
L 317.864531 380.793337 
L 324.407969 378.84455 
L 330.951406 380.815874 
L 337.494844 381.531395 
L 344.038281 381.269227 
L 350.581719 380.890999 
L 357.125156 381.314761 
L 363.668594 381.094448 
L 370.212031 381.29621 
L 376.755469 380.914456 
L 383.298906 380.653207 
L 389.842344 380.063251 
L 396.385781 381.216026 
L 402.929219 380.373714 
L 409.472656 379.244549 
L 416.016094 380.246156 
L 422.559531 380.15386 
L 429.102969 379.350336 
L 435.646406 380.406523 
L 442.189844 381.065778 
L 448.733281 379.779465 
L 455.276719 380.914149 
L 461.820156 380.667925 
L 468.363594 379.65482 
L 474.907031 380.956617 
L 481.450469 381.093988 
L 487.993906 381.158073 
L 494.537344 379.829445 
L 501.080781 380.474288 
L 507.624219 380.898664 
L 514.167656 380.809742 
L 520.711094 380.590194 
L 527.254531 379.768273 
L 533.797969 380.718366 
L 540.341406 380.564131 
L 546.884844 381.12741 
L 553.428281 380.499432 
L 559.971719 381.237337 
L 566.515156 380.958764 
L 573.058594 379.746195 
L 579.602031 379.962523 
L 586.145469 380.308401 
L 592.688906 381.379153 
L 599.232344 379.996559 
L 605.775781 380.451904 
L 612.319219 379.722278 
L 618.862656 379.222625 
L 625.406094 381.319821 
L 631.949531 380.767427 
L 638.492969 381.206981 
L 645.036406 381.07605 
L 651.579844 380.940213 
L 658.123281 378.181156 
L 664.666719 378.466322 
L 671.210156 380.280192 
L 677.753594 380.611352 
L 684.297031 380.392571 
L 690.840469 380.399164 
L 697.383906 380.454971 
L 703.927344 381.319821 
L 710.470781 379.584448 
L 717.014219 380.296136 
L 723.557656 380.929174 
L 730.101094 380.06601 
L 736.644531 379.09246 
L 743.187969 381.160373 
L 749.731406 380.422928 
L 756.274844 380.248149 
L 762.818281 380.929787 
L 769.361719 380.896978 
L 775.905156 380.627297 
L 782.448594 381.412729 
L 788.992031 379.656506 
L 795.535469 380.096214 
L 802.078906 380.418635 
L 808.622344 380.838411 
L 815.165781 380.804989 
L 821.709219 380.548953 
L 828.252656 380.341211 
L 834.796094 380.245849 
L 841.339531 380.207827 
" style="fill:none;stroke:#ee9697;stroke-linecap:round;stroke-width:1.5;"/>
   </g>
   <g id="line2d_21">
    <path clip-path="url(#p56f484c272)" d="M 56.127031 381.856116 
L 62.670469 376.136854 
L 69.213906 378.583148 
L 75.757344 376.856514 
L 82.300781 376.069088 
L 88.844219 375.719683 
L 95.387656 374.910334 
L 101.931094 375.344215 
L 108.474531 373.679367 
L 115.017969 374.21229 
L 121.561406 374.664723 
L 128.104844 374.622715 
L 134.648281 375.949349 
L 141.191719 372.591444 
L 147.735156 364.281771 
L 154.278594 357.591411 
L 160.822031 367.448492 
L 167.365469 370.472478 
L 173.908906 371.976191 
L 180.452344 345.137327 
L 186.995781 345.756106 
L 193.539219 375.27277 
L 200.082656 332.951544 
L 206.626094 330.886237 
L 213.169531 331.458102 
L 219.712969 334.045753 
L 226.256406 354.629365 
L 232.799844 356.73208 
L 239.343281 309.066753 
L 245.886719 342.539251 
L 252.430156 323.686411 
L 258.973594 339.357044 
L 265.517031 354.401846 
L 272.060469 373.290867 
L 278.603906 370.953887 
L 285.147344 371.602869 
L 291.690781 371.727514 
L 298.234219 372.926744 
L 304.777656 374.884883 
L 311.321094 374.875531 
L 317.864531 375.367979 
L 324.407969 371.06136 
L 330.951406 375.066715 
L 337.494844 376.751493 
L 344.038281 375.8615 
L 350.581719 375.168209 
L 357.125156 376.143446 
L 363.668594 375.649925 
L 370.212031 375.46702 
L 376.755469 375.271697 
L 383.298906 374.128887 
L 389.842344 373.265724 
L 396.385781 374.77511 
L 402.929219 323.275067 
L 409.472656 371.446334 
L 416.016094 372.920305 
L 422.559531 373.40616 
L 429.102969 372.026785 
L 435.646406 372.65645 
L 442.189844 375.457055 
L 448.733281 372.679907 
L 455.276719 373.675535 
L 461.820156 374.506655 
L 468.363594 372.335715 
L 474.907031 371.593823 
L 481.450469 375.184154 
L 487.993906 343.51878 
L 494.537344 372.635906 
L 501.080781 373.797727 
L 507.624219 374.352267 
L 514.167656 374.470779 
L 520.711094 374.237741 
L 527.254531 372.475231 
L 533.797969 374.422639 
L 540.341406 373.615742 
L 546.884844 374.76959 
L 553.428281 373.557789 
L 559.971719 375.797874 
L 566.515156 375.026853 
L 573.058594 371.331961 
L 579.602031 372.264577 
L 586.145469 373.565608 
L 592.688906 376.256286 
L 599.232344 373.061661 
L 605.775781 373.572813 
L 612.319219 372.731421 
L 618.862656 367.902765 
L 625.406094 359.124408 
L 631.949531 364.17951 
L 638.492969 365.1526 
L 645.036406 374.977179 
L 651.579844 314.507442 
L 658.123281 251.575773 
L 664.666719 253.592325 
L 671.210156 254.943491 
L 677.753594 325.402926 
L 684.297031 370.696011 
L 690.840469 370.894554 
L 697.383906 370.862664 
L 703.927344 372.382629 
L 710.470781 369.08375 
L 717.014219 370.600649 
L 723.557656 373.32153 
L 730.101094 371.305131 
L 736.644531 369.130358 
L 743.187969 373.446482 
L 749.731406 371.634759 
L 756.274844 371.939089 
L 762.818281 372.480137 
L 769.361719 373.167755 
L 775.905156 372.469099 
L 782.448594 373.079599 
L 788.992031 370.187005 
L 795.535469 370.995282 
L 802.078906 372.272242 
L 808.622344 373.863805 
L 815.165781 373.480211 
L 821.709219 369.227406 
L 828.252656 355.699351 
L 834.796094 312.285908 
L 841.339531 373.658823 
" style="fill:none;stroke:#f7b982;stroke-linecap:round;stroke-width:1.5;"/>
   </g>
   <g id="line2d_22">
    <path clip-path="url(#p56f484c272)" d="M 56.127031 374.147438 
L 62.670469 341.838601 
L 69.213906 356.249905 
L 75.757344 349.611672 
L 82.300781 344.04787 
L 88.844219 342.551976 
L 95.387656 336.860003 
L 101.931094 336.408644 
L 108.474531 326.041636 
L 115.017969 332.412488 
L 121.561406 335.845671 
L 128.104844 334.468136 
L 134.648281 342.184173 
L 141.191719 325.646084 
L 147.735156 308.912824 
L 154.278594 297.261804 
L 160.822031 317.020582 
L 167.365469 327.996403 
L 173.908906 328.805293 
L 180.452344 270.818186 
L 186.995781 274.441633 
L 193.539219 339.206796 
L 200.082656 233.377282 
L 206.626094 225.889378 
L 213.169531 241.365301 
L 219.712969 245.41067 
L 226.256406 289.082909 
L 232.799844 292.022264 
L 239.343281 122.944946 
L 245.886719 243.066791 
L 252.430156 180.672644 
L 258.973594 165.745129 
L 265.517031 289.620584 
L 272.060469 330.02844 
L 278.603906 317.025335 
L 285.147344 319.481747 
L 291.690781 320.375574 
L 298.234219 325.348806 
L 304.777656 336.225892 
L 311.321094 337.615386 
L 317.864531 338.856011 
L 324.407969 302.834958 
L 330.951406 338.920403 
L 337.494844 343.379264 
L 344.038281 341.448568 
L 350.581719 337.371615 
L 357.125156 343.619202 
L 363.668594 338.751604 
L 370.212031 340.875323 
L 376.755469 338.78288 
L 383.298906 331.443691 
L 389.842344 322.480282 
L 396.385781 336.890973 
L 402.929219 183.825874 
L 409.472656 322.032449 
L 416.016094 326.486097 
L 422.559531 326.456507 
L 429.102969 321.100601 
L 435.646406 329.399848 
L 442.189844 341.606022 
L 448.733281 323.916997 
L 455.276719 332.911988 
L 461.820156 335.894272 
L 468.363594 323.45138 
L 474.907031 327.632586 
L 481.450469 339.58763 
L 487.993906 274.107713 
L 494.537344 324.970885 
L 501.080781 332.527781 
L 507.624219 337.737731 
L 514.167656 335.889212 
L 520.711094 334.690289 
L 527.254531 323.252837 
L 533.797969 334.650427 
L 540.341406 332.129469 
L 546.884844 338.792385 
L 553.428281 331.291295 
L 559.971719 342.387469 
L 566.515156 336.504312 
L 573.058594 321.783006 
L 579.602031 325.243939 
L 586.145469 331.352315 
L 592.688906 345.028933 
L 599.232344 327.7974 
L 605.775781 330.44147 
L 612.319219 318.344457 
L 618.862656 312.284681 
L 625.406094 293.941614 
L 631.949531 309.019685 
L 638.492969 309.37231 
L 645.036406 337.270121 
L 651.579844 211.199041 
L 658.123281 40.820845 
L 664.666719 55.370746 
L 671.210156 83.584692 
L 677.753594 224.203833 
L 684.297031 324.567973 
L 690.840469 323.446473 
L 697.383906 322.871542 
L 703.927344 329.6381 
L 710.470781 314.722697 
L 717.014219 323.381161 
L 723.557656 333.687762 
L 730.101094 321.75081 
L 736.644531 310.720562 
L 743.187969 333.354302 
L 749.731406 324.583611 
L 756.274844 323.800324 
L 762.818281 331.584894 
L 769.361719 332.890831 
L 775.905156 327.064094 
L 782.448594 335.992393 
L 788.992031 315.738408 
L 795.535469 321.282586 
L 802.078906 329.258492 
L 808.622344 334.647668 
L 815.165781 335.15882 
L 821.709219 323.002013 
L 828.252656 283.163263 
L 834.796094 157.328135 
L 841.339531 330.387964 
" style="fill:none;stroke:#90abc8;stroke-linecap:round;stroke-width:1.5;"/>
   </g>
   <g id="patch_3">
    <path d="M 56.127031 383.58275 
L 56.127031 23.68275 
" style="fill:none;stroke:#808080;stroke-linecap:square;stroke-linejoin:miter;"/>
   </g>
   <g id="patch_4">
    <path d="M 841.339531 383.58275 
L 841.339531 23.68275 
" style="fill:none;stroke:#808080;stroke-linecap:square;stroke-linejoin:miter;"/>
   </g>
   <g id="patch_5">
    <path d="M 56.127031 383.58275 
L 841.339531 383.58275 
" style="fill:none;stroke:#808080;stroke-linecap:square;stroke-linejoin:miter;"/>
   </g>
   <g id="patch_6">
    <path d="M 56.127031 23.68275 
L 841.339531 23.68275 
" style="fill:none;stroke:#808080;stroke-linecap:square;stroke-linejoin:miter;"/>
   </g>
   <g id="text_15">
    <!-- Network traffic targeting our sensors -->
    <defs>
     <path d="M 7.625 0 
L 7.625 71.578125 
L 17.328125 71.578125 
L 54.9375 15.375 
L 54.9375 71.578125 
L 64.015625 71.578125 
L 64.015625 0 
L 54.296875 0 
L 16.703125 56.25 
L 16.703125 0 
z
" id="ArialMT-78"/>
     <path d="M 42.09375 16.703125 
L 51.171875 15.578125 
Q 49.03125 7.625 43.21875 3.21875 
Q 37.40625 -1.171875 28.375 -1.171875 
Q 17 -1.171875 10.328125 5.828125 
Q 3.65625 12.84375 3.65625 25.484375 
Q 3.65625 38.578125 10.390625 45.796875 
Q 17.140625 53.03125 27.875 53.03125 
Q 38.28125 53.03125 44.875 45.953125 
Q 51.46875 38.875 51.46875 26.03125 
Q 51.46875 25.25 51.421875 23.6875 
L 12.75 23.6875 
Q 13.234375 15.140625 17.578125 10.59375 
Q 21.921875 6.0625 28.421875 6.0625 
Q 33.25 6.0625 36.671875 8.59375 
Q 40.09375 11.140625 42.09375 16.703125 
z
M 13.234375 30.90625 
L 42.1875 30.90625 
Q 41.609375 37.453125 38.875 40.71875 
Q 34.671875 45.796875 27.984375 45.796875 
Q 21.921875 45.796875 17.796875 41.75 
Q 13.671875 37.703125 13.234375 30.90625 
z
" id="ArialMT-101"/>
     <path d="M 16.15625 0 
L 0.296875 51.859375 
L 9.375 51.859375 
L 17.625 21.921875 
L 20.703125 10.796875 
Q 20.90625 11.625 23.390625 21.484375 
L 31.640625 51.859375 
L 40.671875 51.859375 
L 48.4375 21.78125 
L 51.03125 11.859375 
L 54 21.875 
L 62.890625 51.859375 
L 71.4375 51.859375 
L 55.21875 0 
L 46.09375 0 
L 37.84375 31.0625 
L 35.84375 39.890625 
L 25.34375 0 
z
" id="ArialMT-119"/>
     <path d="M 3.328125 25.921875 
Q 3.328125 40.328125 11.328125 47.265625 
Q 18.015625 53.03125 27.640625 53.03125 
Q 38.328125 53.03125 45.109375 46.015625 
Q 51.90625 39.015625 51.90625 26.65625 
Q 51.90625 16.65625 48.90625 10.90625 
Q 45.90625 5.171875 40.15625 2 
Q 34.421875 -1.171875 27.640625 -1.171875 
Q 16.75 -1.171875 10.03125 5.8125 
Q 3.328125 12.796875 3.328125 25.921875 
z
M 12.359375 25.921875 
Q 12.359375 15.96875 16.703125 11.015625 
Q 21.046875 6.0625 27.640625 6.0625 
Q 34.1875 6.0625 38.53125 11.03125 
Q 42.875 16.015625 42.875 26.21875 
Q 42.875 35.84375 38.5 40.796875 
Q 34.125 45.75 27.640625 45.75 
Q 21.046875 45.75 16.703125 40.8125 
Q 12.359375 35.890625 12.359375 25.921875 
z
" id="ArialMT-111"/>
     <path d="M 6.5 0 
L 6.5 51.859375 
L 14.40625 51.859375 
L 14.40625 44 
Q 17.4375 49.515625 20 51.265625 
Q 22.5625 53.03125 25.640625 53.03125 
Q 30.078125 53.03125 34.671875 50.203125 
L 31.640625 42.046875 
Q 28.421875 43.953125 25.203125 43.953125 
Q 22.3125 43.953125 20.015625 42.21875 
Q 17.71875 40.484375 16.75 37.40625 
Q 15.28125 32.71875 15.28125 27.15625 
L 15.28125 0 
z
" id="ArialMT-114"/>
     <path d="M 6.640625 0 
L 6.640625 71.578125 
L 15.4375 71.578125 
L 15.4375 30.765625 
L 36.234375 51.859375 
L 47.609375 51.859375 
L 27.78125 32.625 
L 49.609375 0 
L 38.765625 0 
L 21.625 26.515625 
L 15.4375 20.5625 
L 15.4375 0 
z
" id="ArialMT-107"/>
     <path d="M 8.6875 0 
L 8.6875 45.015625 
L 0.921875 45.015625 
L 0.921875 51.859375 
L 8.6875 51.859375 
L 8.6875 57.375 
Q 8.6875 62.59375 9.625 65.140625 
Q 10.890625 68.5625 14.078125 70.671875 
Q 17.28125 72.796875 23.046875 72.796875 
Q 26.765625 72.796875 31.25 71.921875 
L 29.9375 64.265625 
Q 27.203125 64.75 24.75 64.75 
Q 20.75 64.75 19.09375 63.03125 
Q 17.4375 61.328125 17.4375 56.640625 
L 17.4375 51.859375 
L 27.546875 51.859375 
L 27.546875 45.015625 
L 17.4375 45.015625 
L 17.4375 0 
z
" id="ArialMT-102"/>
     <path d="M 40.4375 19 
L 49.078125 17.875 
Q 47.65625 8.9375 41.8125 3.875 
Q 35.984375 -1.171875 27.484375 -1.171875 
Q 16.84375 -1.171875 10.375 5.78125 
Q 3.90625 12.75 3.90625 25.734375 
Q 3.90625 34.125 6.6875 40.421875 
Q 9.46875 46.734375 15.15625 49.875 
Q 20.84375 53.03125 27.546875 53.03125 
Q 35.984375 53.03125 41.359375 48.75 
Q 46.734375 44.484375 48.25 36.625 
L 39.703125 35.296875 
Q 38.484375 40.53125 35.375 43.15625 
Q 32.28125 45.796875 27.875 45.796875 
Q 21.234375 45.796875 17.078125 41.03125 
Q 12.9375 36.28125 12.9375 25.984375 
Q 12.9375 15.53125 16.9375 10.796875 
Q 20.953125 6.0625 27.390625 6.0625 
Q 32.5625 6.0625 36.03125 9.234375 
Q 39.5 12.40625 40.4375 19 
z
" id="ArialMT-99"/>
     <path d="M 4.984375 -4.296875 
L 13.53125 -5.5625 
Q 14.0625 -9.515625 16.5 -11.328125 
Q 19.78125 -13.765625 25.4375 -13.765625 
Q 31.546875 -13.765625 34.859375 -11.328125 
Q 38.1875 -8.890625 39.359375 -4.5 
Q 40.046875 -1.8125 39.984375 6.78125 
Q 34.234375 0 25.640625 0 
Q 14.9375 0 9.078125 7.71875 
Q 3.21875 15.4375 3.21875 26.21875 
Q 3.21875 33.640625 5.90625 39.90625 
Q 8.59375 46.1875 13.6875 49.609375 
Q 18.796875 53.03125 25.6875 53.03125 
Q 34.859375 53.03125 40.828125 45.609375 
L 40.828125 51.859375 
L 48.921875 51.859375 
L 48.921875 7.03125 
Q 48.921875 -5.078125 46.453125 -10.125 
Q 44 -15.1875 38.640625 -18.109375 
Q 33.296875 -21.046875 25.484375 -21.046875 
Q 16.21875 -21.046875 10.5 -16.875 
Q 4.78125 -12.703125 4.984375 -4.296875 
z
M 12.25 26.859375 
Q 12.25 16.65625 16.296875 11.96875 
Q 20.359375 7.28125 26.46875 7.28125 
Q 32.515625 7.28125 36.609375 11.9375 
Q 40.71875 16.609375 40.71875 26.5625 
Q 40.71875 36.078125 36.5 40.90625 
Q 32.28125 45.75 26.3125 45.75 
Q 20.453125 45.75 16.34375 40.984375 
Q 12.25 36.234375 12.25 26.859375 
z
" id="ArialMT-103"/>
     <path d="M 6.59375 0 
L 6.59375 51.859375 
L 14.5 51.859375 
L 14.5 44.484375 
Q 20.21875 53.03125 31 53.03125 
Q 35.6875 53.03125 39.625 51.34375 
Q 43.5625 49.65625 45.515625 46.921875 
Q 47.46875 44.1875 48.25 40.4375 
Q 48.734375 37.984375 48.734375 31.890625 
L 48.734375 0 
L 39.9375 0 
L 39.9375 31.546875 
Q 39.9375 36.921875 38.90625 39.578125 
Q 37.890625 42.234375 35.28125 43.8125 
Q 32.671875 45.40625 29.15625 45.40625 
Q 23.53125 45.40625 19.453125 41.84375 
Q 15.375 38.28125 15.375 28.328125 
L 15.375 0 
z
" id="ArialMT-110"/>
     <path d="M 40.578125 0 
L 40.578125 7.625 
Q 34.515625 -1.171875 24.125 -1.171875 
Q 19.53125 -1.171875 15.546875 0.578125 
Q 11.578125 2.34375 9.640625 5 
Q 7.71875 7.671875 6.9375 11.53125 
Q 6.390625 14.109375 6.390625 19.734375 
L 6.390625 51.859375 
L 15.1875 51.859375 
L 15.1875 23.09375 
Q 15.1875 16.21875 15.71875 13.8125 
Q 16.546875 10.359375 19.234375 8.375 
Q 21.921875 6.390625 25.875 6.390625 
Q 29.828125 6.390625 33.296875 8.421875 
Q 36.765625 10.453125 38.203125 13.9375 
Q 39.65625 17.4375 39.65625 24.078125 
L 39.65625 51.859375 
L 48.4375 51.859375 
L 48.4375 0 
z
" id="ArialMT-117"/>
    </defs>
    <g style="fill:#262626;" transform="translate(333.095656 17.68275)scale(0.144 -0.144)">
     <use xlink:href="#ArialMT-78"/>
     <use x="72.216797" xlink:href="#ArialMT-101"/>
     <use x="127.832031" xlink:href="#ArialMT-116"/>
     <use x="155.615234" xlink:href="#ArialMT-119"/>
     <use x="227.832031" xlink:href="#ArialMT-111"/>
     <use x="283.447266" xlink:href="#ArialMT-114"/>
     <use x="316.748047" xlink:href="#ArialMT-107"/>
     <use x="366.748047" xlink:href="#ArialMT-32"/>
     <use x="394.53125" xlink:href="#ArialMT-116"/>
     <use x="422.314453" xlink:href="#ArialMT-114"/>
     <use x="455.615234" xlink:href="#ArialMT-97"/>
     <use x="511.230469" xlink:href="#ArialMT-102"/>
     <use x="538.998047" xlink:href="#ArialMT-102"/>
     <use x="566.78125" xlink:href="#ArialMT-105"/>
     <use x="588.998047" xlink:href="#ArialMT-99"/>
     <use x="638.998047" xlink:href="#ArialMT-32"/>
     <use x="666.78125" xlink:href="#ArialMT-116"/>
     <use x="694.564453" xlink:href="#ArialMT-97"/>
     <use x="750.179688" xlink:href="#ArialMT-114"/>
     <use x="783.480469" xlink:href="#ArialMT-103"/>
     <use x="839.095703" xlink:href="#ArialMT-101"/>
     <use x="894.710938" xlink:href="#ArialMT-116"/>
     <use x="922.494141" xlink:href="#ArialMT-105"/>
     <use x="944.710938" xlink:href="#ArialMT-110"/>
     <use x="1000.326172" xlink:href="#ArialMT-103"/>
     <use x="1055.941406" xlink:href="#ArialMT-32"/>
     <use x="1083.724609" xlink:href="#ArialMT-111"/>
     <use x="1139.339844" xlink:href="#ArialMT-117"/>
     <use x="1194.955078" xlink:href="#ArialMT-114"/>
     <use x="1228.255859" xlink:href="#ArialMT-32"/>
     <use x="1256.039062" xlink:href="#ArialMT-115"/>
     <use x="1306.039062" xlink:href="#ArialMT-101"/>
     <use x="1361.654297" xlink:href="#ArialMT-110"/>
     <use x="1417.269531" xlink:href="#ArialMT-115"/>
     <use x="1467.269531" xlink:href="#ArialMT-111"/>
     <use x="1522.884766" xlink:href="#ArialMT-114"/>
     <use x="1556.185547" xlink:href="#ArialMT-115"/>
    </g>
   </g>
   <g id="legend_1">
    <g id="patch_7">
     <path d="M 63.827031 79.162281 
L 157.729219 79.162281 
Q 159.929219 79.162281 159.929219 76.962281 
L 159.929219 31.38275 
Q 159.929219 29.18275 157.729219 29.18275 
L 63.827031 29.18275 
Q 61.627031 29.18275 61.627031 31.38275 
L 61.627031 76.962281 
Q 61.627031 79.162281 63.827031 79.162281 
z
" style="fill:#ffffff;opacity:0.8;stroke:#cccccc;stroke-linejoin:miter;stroke-width:0.5;"/>
    </g>
    <g id="patch_8">
     <path d="M 66.027031 41.456344 
L 88.027031 41.456344 
L 88.027031 33.756344 
L 66.027031 33.756344 
z
" style="fill:#90abc8;stroke:#90abc8;stroke-linejoin:miter;stroke-width:0.5;"/>
    </g>
    <g id="text_16">
     <!-- packets -->
     <defs>
      <path d="M 6.59375 -19.875 
L 6.59375 51.859375 
L 14.59375 51.859375 
L 14.59375 45.125 
Q 17.4375 49.078125 21 51.046875 
Q 24.5625 53.03125 29.640625 53.03125 
Q 36.28125 53.03125 41.359375 49.609375 
Q 46.4375 46.1875 49.015625 39.953125 
Q 51.609375 33.734375 51.609375 26.3125 
Q 51.609375 18.359375 48.75 11.984375 
Q 45.90625 5.609375 40.453125 2.21875 
Q 35.015625 -1.171875 29 -1.171875 
Q 24.609375 -1.171875 21.109375 0.6875 
Q 17.625 2.546875 15.375 5.375 
L 15.375 -19.875 
z
M 14.546875 25.640625 
Q 14.546875 15.625 18.59375 10.84375 
Q 22.65625 6.0625 28.421875 6.0625 
Q 34.28125 6.0625 38.453125 11.015625 
Q 42.625 15.96875 42.625 26.375 
Q 42.625 36.28125 38.546875 41.203125 
Q 34.46875 46.140625 28.8125 46.140625 
Q 23.1875 46.140625 18.859375 40.890625 
Q 14.546875 35.640625 14.546875 25.640625 
z
" id="ArialMT-112"/>
     </defs>
     <g style="fill:#262626;" transform="translate(96.827031 41.456344)scale(0.11 -0.11)">
      <use xlink:href="#ArialMT-112"/>
      <use x="55.615234" xlink:href="#ArialMT-97"/>
      <use x="111.230469" xlink:href="#ArialMT-99"/>
      <use x="161.230469" xlink:href="#ArialMT-107"/>
      <use x="211.230469" xlink:href="#ArialMT-101"/>
      <use x="266.845703" xlink:href="#ArialMT-116"/>
      <use x="294.628906" xlink:href="#ArialMT-115"/>
     </g>
    </g>
    <g id="patch_9">
     <path d="M 66.027031 57.016187 
L 88.027031 57.016187 
L 88.027031 49.316187 
L 66.027031 49.316187 
z
" style="fill:#f7b982;stroke:#f7b982;stroke-linejoin:miter;stroke-width:0.5;"/>
    </g>
    <g id="text_17">
     <!-- flows -->
     <defs>
      <path d="M 6.390625 0 
L 6.390625 71.578125 
L 15.1875 71.578125 
L 15.1875 0 
z
" id="ArialMT-108"/>
     </defs>
     <g style="fill:#262626;" transform="translate(96.827031 57.016187)scale(0.11 -0.11)">
      <use xlink:href="#ArialMT-102"/>
      <use x="27.783203" xlink:href="#ArialMT-108"/>
      <use x="50" xlink:href="#ArialMT-111"/>
      <use x="105.615234" xlink:href="#ArialMT-119"/>
      <use x="177.832031" xlink:href="#ArialMT-115"/>
     </g>
    </g>
    <g id="patch_10">
     <path d="M 66.027031 72.576031 
L 88.027031 72.576031 
L 88.027031 64.876031 
L 66.027031 64.876031 
z
" style="fill:#ee9697;stroke:#ee9697;stroke-linejoin:miter;stroke-width:0.5;"/>
    </g>
    <g id="text_18">
     <!-- connections -->
     <g style="fill:#262626;" transform="translate(96.827031 72.576031)scale(0.11 -0.11)">
      <use xlink:href="#ArialMT-99"/>
      <use x="50" xlink:href="#ArialMT-111"/>
      <use x="105.615234" xlink:href="#ArialMT-110"/>
      <use x="161.230469" xlink:href="#ArialMT-110"/>
      <use x="216.845703" xlink:href="#ArialMT-101"/>
      <use x="272.460938" xlink:href="#ArialMT-99"/>
      <use x="322.460938" xlink:href="#ArialMT-116"/>
      <use x="350.244141" xlink:href="#ArialMT-105"/>
      <use x="372.460938" xlink:href="#ArialMT-111"/>
      <use x="428.076172" xlink:href="#ArialMT-110"/>
      <use x="483.691406" xlink:href="#ArialMT-115"/>
     </g>
    </g>
   </g>
  </g>
 </g>
 <defs>
  <clipPath id="p56f484c272">
   <rect height="359.9" width="785.2125" x="56.127031" y="23.68275"/>
  </clipPath>
 </defs>
</svg>
